<svg width="24" height="24" viewBox="0 0 24 24" fill="none" xmlns="http://www.w3.org/2000/svg">
<path fill-rule="evenodd" clip-rule="evenodd" d="M14 1C14.2764 1 14.5266 1.11215 14.7076 1.29342C14.8883 1.47435 15 1.72413 15 2V4.41421L17.5858 7H20C20.5523 7 21 7.44772 21 8V20C21 21.6569 19.6569 23 18 23H6C4.34315 23 3 21.6569 3 20V4C3 2.34315 4.34315 1 6 1H14ZM6 3H13L19 9V20C19 20.5523 18.5523 21 18 21H6C5.44772 21 5 20.5523 5 20V4C5 3.44772 5.44772 3 6 3ZM8 12H16C16.5523 12 17 12.4477 17 13C17 13.5523 16.5523 14 16 14H8C7.44772 14 7 13.5523 7 13C7 12.4477 7.44772 12 8 12ZM16 16H8C7.44772 16 7 16.4477 7 17C7 17.5523 7.44772 18 8 18H16C16.5523 18 17 17.5523 17 17C17 16.4477 16.5523 16 16 16ZM8 8H10C10.5523 8 11 8.44772 11 9C11 9.55229 10.5523 10 10 10H8C7.44772 10 7 9.55229 7 9C7 8.44772 7.44772 8 8 8Z" fill="black"/>
<mask id="mask0" mask-type="alpha" maskUnits="userSpaceOnUse" x="3" y="1" width="18" height="22">
<path fill-rule="evenodd" clip-rule="evenodd" d="M14 1C14.2764 1 14.5266 1.11215 14.7076 1.29342C14.8883 1.47435 15 1.72413 15 2V4.41421L17.5858 7H20C20.5523 7 21 7.44772 21 8V20C21 21.6569 19.6569 23 18 23H6C4.34315 23 3 21.6569 3 20V4C3 2.34315 4.34315 1 6 1H14ZM6 3H13L19 9V20C19 20.5523 18.5523 21 18 21H6C5.44772 21 5 20.5523 5 20V4C5 3.44772 5.44772 3 6 3ZM8 12H16C16.5523 12 17 12.4477 17 13C17 13.5523 16.5523 14 16 14H8C7.44772 14 7 13.5523 7 13C7 12.4477 7.44772 12 8 12ZM16 16H8C7.44772 16 7 16.4477 7 17C7 17.5523 7.44772 18 8 18H16C16.5523 18 17 17.5523 17 17C17 16.4477 16.5523 16 16 16ZM8 8H10C10.5523 8 11 8.44772 11 9C11 9.55229 10.5523 10 10 10H8C7.44772 10 7 9.55229 7 9C7 8.44772 7.44772 8 8 8Z" fill="white"/>
</mask>
<g mask="url(#mask0)">
<rect width="24" height="24" fill="#02A89B"/>
</g>
</svg>
