<svg width="25" height="25" viewBox="0 0 25 25" fill="none" xmlns="http://www.w3.org/2000/svg">
<mask id="mask0" mask-type="alpha" maskUnits="userSpaceOnUse" x="2" y="4" width="21" height="17">
<path fill-rule="evenodd" clip-rule="evenodd" d="M20.9636 4.6875H4.0365C2.9578 4.6875 2.08337 5.56193 2.08337 6.64062V18.3594C2.08337 19.4381 2.9578 20.3125 4.0365 20.3125H20.9636C22.0423 20.3125 22.9167 19.4381 22.9167 18.3594V6.64062C22.9167 5.56193 22.0423 4.6875 20.9636 4.6875ZM20.9636 6.64062V8.30098C20.0512 9.04395 18.5967 10.1992 15.4872 12.6341C15.372 12.7247 15.2379 12.8366 15.0899 12.9601L15.0899 12.9601C14.3573 13.5714 13.2858 14.4655 12.5 14.453C11.7144 14.4657 10.6425 13.5712 9.91001 12.96C9.76206 12.8365 9.62796 12.7246 9.51286 12.6341C6.40385 10.1996 4.94897 9.04407 4.0365 8.30098V6.64062H20.9636ZM4.0365 10.8072V18.3594H20.9636V10.8073C20.0312 11.5499 18.7086 12.5923 16.6933 14.1704C16.5616 14.2741 16.4172 14.3942 16.2612 14.524C15.3304 15.2982 13.9887 16.4143 12.5 16.4062C11.0049 16.4143 9.64848 15.2832 8.73097 14.5181C8.57655 14.3893 8.43456 14.2709 8.30644 14.1701C6.2911 12.592 4.96887 11.5498 4.0365 10.8072Z" fill="white"/>
</mask>
<g mask="url(#mask0)">
<rect width="25" height="25" fill="black"/>
</g>
</svg>
