<svg width="208" height="40" viewBox="0 0 208 40" fill="none" xmlns="http://www.w3.org/2000/svg">
<path fill-rule="evenodd" clip-rule="evenodd" d="M0 0.195198V39.8196L39.6244 39.8223V39.8196V15.8682H33.3573V33.5525H6.26712V6.46212H39.6244V0.195198H0Z" fill="white"/>
<path fill-rule="evenodd" clip-rule="evenodd" d="M68.0974 15.7554H76.5625V12.7899H71.8213V11.0141H75.4248V8.0832H71.8213V6.39364H76.5625V3.42818H68.0974V15.7554Z" fill="white"/>
<path fill-rule="evenodd" clip-rule="evenodd" d="M85.7003 12.6694C84.0796 12.6694 82.9073 11.3935 82.9073 9.51428C82.9073 7.72131 84.0796 6.51428 85.7003 6.51428C87.3209 6.51428 88.4932 7.72131 88.4932 9.51428C88.4932 11.3935 87.3209 12.6694 85.7003 12.6694ZM85.7003 3.22141C81.7348 3.22141 79.0798 5.92814 79.0798 9.51428C79.0798 13.1865 81.7348 15.9623 85.7003 15.9623C89.6657 15.9623 92.3207 13.1865 92.3207 9.51428C92.3207 5.92814 89.6657 3.22141 85.7003 3.22141Z" fill="white"/>
<path fill-rule="evenodd" clip-rule="evenodd" d="M124.009 15.7553H127.733V3.42809H124.009V15.7553Z" fill="white"/>
<path fill-rule="evenodd" clip-rule="evenodd" d="M52.1671 27.2895H55.8393V36.4444H59.546V27.2895H63.2184V24.1172H52.1671V27.2895Z" fill="white"/>
<path fill-rule="evenodd" clip-rule="evenodd" d="M66.218 36.4444H74.6833V33.4789H69.9421V31.7031H73.5454V28.7722H69.9421V27.0826H74.6833V24.1171H66.218V36.4444Z" fill="white"/>
<path fill-rule="evenodd" clip-rule="evenodd" d="M84.166 33.3065C82.0452 33.3065 80.9765 31.8237 80.9765 30.2376C80.9765 28.6514 82.0108 27.2549 84.166 27.2549C85.942 27.2549 87.166 28.4272 87.166 28.4272L88.614 25.5654C88.614 25.5654 87.0625 23.9102 83.8902 23.9102C79.9248 23.9102 77.1833 26.6516 77.1833 30.2893C77.1833 33.9788 79.8557 36.6512 83.8727 36.6512C87.3037 36.6512 88.9589 34.6686 88.9589 34.6686L87.269 31.8754C87.269 31.8754 86.1312 33.3065 84.166 33.3065Z" fill="white"/>
<path fill-rule="evenodd" clip-rule="evenodd" d="M99.0964 28.7549H95.5274V24.117H91.8033V36.4444H95.5274V31.91H99.0964V36.4444H102.82V24.117H99.0964V28.7549Z" fill="white"/>
<path fill-rule="evenodd" clip-rule="evenodd" d="M127.561 33.3582C125.94 33.3582 124.768 32.0825 124.768 30.2031C124.768 28.4101 125.94 27.2033 127.561 27.2033C129.181 27.2033 130.354 28.4101 130.354 30.2031C130.354 32.0825 129.181 33.3582 127.561 33.3582ZM127.561 23.9102C123.595 23.9102 120.94 26.6171 120.94 30.2031C120.94 33.8755 123.595 36.6513 127.561 36.6513C131.526 36.6513 134.181 33.8755 134.181 30.2031C134.181 26.6171 131.526 23.9102 127.561 23.9102Z" fill="white"/>
<path fill-rule="evenodd" clip-rule="evenodd" d="M141.163 24.1171H137.44V36.4443H145.991V33.3237H141.163V24.1171Z" fill="white"/>
<path fill-rule="evenodd" clip-rule="evenodd" d="M154.68 33.3582C153.059 33.3582 151.887 32.0825 151.887 30.2031C151.887 28.4101 153.059 27.2033 154.68 27.2033C156.301 27.2033 157.473 28.4101 157.473 30.2031C157.473 32.0825 156.301 33.3582 154.68 33.3582ZM154.68 23.9102C150.715 23.9102 148.059 26.6171 148.059 30.2031C148.059 33.8755 150.715 36.6513 154.68 36.6513C158.646 36.6513 161.301 33.8755 161.301 30.2031C161.301 26.6171 158.646 23.9102 154.68 23.9102Z" fill="white"/>
<path fill-rule="evenodd" clip-rule="evenodd" d="M179.627 36.4443H183.351V24.1171H179.627V36.4443Z" fill="white"/>
<path fill-rule="evenodd" clip-rule="evenodd" d="M187.213 36.4444H195.678V33.4789H190.937V31.7031H194.541V28.7722H190.937V27.0826H195.678V24.1171H187.213V36.4444Z" fill="white"/>
<path fill-rule="evenodd" clip-rule="evenodd" d="M204.023 28.8239C203.023 28.4274 202.299 28.2895 202.299 27.6861C202.299 27.1515 202.782 27.0138 203.35 27.0138C204.868 27.0138 206.213 28.0998 206.213 28.0998L207.402 25.2206C207.402 25.2206 205.902 23.9101 203.316 23.9101C200.557 23.9101 198.575 25.3757 198.575 27.7377C198.575 29.9445 200.299 30.9099 201.868 31.548C203.109 32.0651 203.919 32.203 203.919 32.8582C203.919 33.3755 203.454 33.5478 202.902 33.5478C201.247 33.5478 199.816 32.2721 199.816 32.2721L198.299 34.979C198.299 34.979 200.057 36.6512 203.006 36.6512C206.006 36.6512 207.644 34.9099 207.644 32.7548C207.644 30.3757 205.695 29.4789 204.023 28.8239Z" fill="white"/>
<path fill-rule="evenodd" clip-rule="evenodd" d="M59.9771 11.4452H61.5461V11.997C61.4255 12.152 60.5287 12.7557 59.3734 12.7557C57.4944 12.7557 56.2532 11.4107 56.2532 9.53147C56.2532 7.92796 57.1841 6.5143 59.4944 6.5143C61.3391 6.5143 62.4598 7.63508 62.4598 7.63508L63.9941 4.7902C63.9941 4.7902 62.391 3.22142 59.2011 3.22142C55.0979 3.22142 52.4255 5.99723 52.4255 9.61771C52.4255 13.4624 55.1668 15.9623 58.5114 15.9623C60.2702 15.9623 61.2407 15.2308 61.5461 14.9209V15.7555H61.6667H64.6319V8.79001H59.9771V11.4452Z" fill="white"/>
<path fill-rule="evenodd" clip-rule="evenodd" d="M100.389 9.0143H99.2857V6.42815H100.251C101.372 6.42815 101.699 6.92806 101.699 7.70386C101.699 8.5142 101.217 9.0143 100.389 9.0143ZM103.596 10.9281C104.751 10.2211 105.475 8.89352 105.475 7.47986C105.475 4.89371 103.63 3.42815 100.924 3.42815H95.5618V15.7554H99.2857V11.8935H100.32L102.234 15.7554H106.286L103.596 10.9624V10.9281Z" fill="white"/>
<path fill-rule="evenodd" clip-rule="evenodd" d="M115.889 11.4452H117.458V11.997C117.337 12.152 116.441 12.7557 115.285 12.7557C113.406 12.7557 112.165 11.4107 112.165 9.53147C112.165 7.92796 113.096 6.5143 115.406 6.5143C117.251 6.5143 118.371 7.63508 118.371 7.63508L119.906 4.7902C119.906 4.7902 118.303 3.22142 115.113 3.22142C111.01 3.22142 108.337 5.99723 108.337 9.61771C108.337 13.4624 111.079 15.9623 114.423 15.9623C116.182 15.9623 117.152 15.2312 117.458 14.9211V15.765H120.544L120.533 15.7555H120.544V8.79001H115.889V11.4452Z" fill="white"/>
<path fill-rule="evenodd" clip-rule="evenodd" d="M135.423 10.7728L136.466 7.10121L137.515 10.7728H135.423ZM138.94 15.7555H142.543L138.474 3.42823H134.474L130.405 15.7555H134.009L134.655 13.4797H138.284L138.94 15.7555Z" fill="white"/>
<path fill-rule="evenodd" clip-rule="evenodd" d="M114.078 29.1687V30.4526L110.234 24.117H106.682V36.4444H110.199V31.1514V29.8302L114.061 36.4444H117.682V24.117H114.078V29.1687Z" fill="white"/>
<path fill-rule="evenodd" clip-rule="evenodd" d="M171.507 32.1342H173.076V32.6858C172.955 32.8411 172.058 33.4446 170.904 33.4446C169.024 33.4446 167.783 32.0996 167.783 30.2204C167.783 28.6169 168.714 27.2032 171.024 27.2032C172.869 27.2032 173.99 28.3238 173.99 28.3238L175.524 25.4793C175.524 25.4793 173.921 23.9102 170.731 23.9102C166.628 23.9102 163.956 26.686 163.956 30.3067C163.956 34.1513 166.697 36.6512 170.041 36.6512C171.8 36.6512 172.77 35.9201 173.076 35.6101V36.4428H173.197V36.4444H176.162V29.4789H171.507V32.1342Z" fill="white"/>
</svg>
