<svg width="60" height="60" viewBox="0 0 60 60" fill="none" xmlns="http://www.w3.org/2000/svg">
<g opacity="0.498558">
<mask id="mask0" mask-type="alpha" maskUnits="userSpaceOnUse" x="0" y="25" width="9" height="9">
<path fill-rule="evenodd" clip-rule="evenodd" d="M0.75 25.228H8.56189V33.5064H0.75V25.228Z" fill="white"/>
</mask>
<g mask="url(#mask0)">
<path fill-rule="evenodd" clip-rule="evenodd" d="M2.72045 26.9537V28.8659H5.40203C6.15993 28.8659 6.53305 28.5043 6.53305 27.9098C6.53305 27.2685 6.15993 26.9537 5.40203 26.9537H2.72045ZM0.749939 25.228H5.58861C7.46586 25.228 8.56189 26.1608 8.56189 27.898C8.56189 29.6236 7.46586 30.5916 5.58861 30.5916H2.72047V33.5064H0.749939V25.228Z" fill="white"/>
</g>
<mask id="mask1" mask-type="alpha" maskUnits="userSpaceOnUse" x="0" y="11" width="60" height="38">
<path fill-rule="evenodd" clip-rule="evenodd" d="M0.75 48.1054H59.8881V11.25H0.75V48.1054Z" fill="white"/>
</mask>
<g mask="url(#mask1)">
<path fill-rule="evenodd" clip-rule="evenodd" d="M10.1243 33.5064H12.1065V25.228H10.1243V33.5064Z" fill="white"/>
<path fill-rule="evenodd" clip-rule="evenodd" d="M20.5015 29.3669C20.5015 27.9794 19.592 26.8602 18.1345 26.8602C16.6889 26.8602 15.7561 27.9679 15.7561 29.3669C15.7561 30.7779 16.6889 31.8738 18.1345 31.8738C19.592 31.8738 20.5015 30.7661 20.5015 29.3669ZM13.7389 29.3669C13.7389 26.8136 15.6511 25.0879 18.1345 25.0879C20.6064 25.0879 22.5184 26.8136 22.5184 29.3669C22.5184 31.8854 20.6064 33.6461 18.1345 33.6461C15.6511 33.6461 13.7389 31.8854 13.7389 29.3669Z" fill="white"/>
<path fill-rule="evenodd" clip-rule="evenodd" d="M32.1845 33.5295H30.5755L26.0633 27.8046V33.5061H24.1279V25.2278H26.3781L30.2956 30.2997V25.2278H32.1845V33.5295Z" fill="white"/>
<path fill-rule="evenodd" clip-rule="evenodd" d="M34.1902 25.228H41.116V26.8602H36.1724V28.3527H39.1222V30.0201H36.1724V31.7924H41.5708V33.5064H34.1902V25.228Z" fill="white"/>
<path fill-rule="evenodd" clip-rule="evenodd" d="M42.9934 25.228H49.9192V26.8602H44.9756V28.3527H47.9254V30.0201H44.9756V31.7924H50.3739V33.5064H42.9934V25.228Z" fill="white"/>
<path fill-rule="evenodd" clip-rule="evenodd" d="M53.7787 26.9301V28.6908H56.4369C57.1948 28.6908 57.5679 28.3993 57.5679 27.828C57.5679 27.1867 57.1832 26.9301 56.4369 26.9301H53.7787ZM51.7964 25.2278H56.6468C58.4774 25.2278 59.5967 26.1023 59.5967 27.8279C59.5967 28.9937 59.0137 29.7752 58.0226 30.1364L59.8882 33.5061H57.8011L56.0523 30.3581H53.7786V33.5061H51.7964V25.2278Z" fill="white"/>
<path fill-rule="evenodd" clip-rule="evenodd" d="M14.3334 16.6418C14.519 15.2284 14.6262 14.5207 14.8703 13.105C15.6062 12.9252 15.9753 12.8409 16.7147 12.6829C17.1415 14.68 17.3548 15.6785 17.7816 17.6756C17.3119 17.7759 17.0773 17.8286 16.6092 17.9384C16.2565 16.4346 16.08 15.6828 15.7271 14.179C15.4486 15.834 15.3293 16.661 15.1303 18.3129C14.8066 18.3976 14.6449 18.4411 14.3219 18.5303C13.3318 17.2106 12.8189 16.5594 11.7579 15.2766C12.2037 16.7432 12.4264 17.4766 12.8722 18.9437C12.4326 19.0772 12.2134 19.1461 11.776 19.2882C11.145 17.346 10.8294 16.375 10.1982 14.4326C10.9561 14.1864 11.3364 14.0692 12.0995 13.8467C13.0197 14.9507 13.4667 15.51 14.3334 16.6418Z" fill="white"/>
<path fill-rule="evenodd" clip-rule="evenodd" d="M21.883 15.0232C21.4622 14.3523 21.2473 14.0185 20.8085 13.3546C20.585 14.1186 20.4781 14.5008 20.2741 15.2661C20.9166 15.1604 21.2384 15.1118 21.883 15.0232ZM22.4698 15.9748C21.4772 16.1038 20.9816 16.1787 19.9937 16.3487C19.8988 16.724 19.8524 16.9117 19.7622 17.2871C19.27 17.3752 19.0241 17.4216 18.5334 17.5199C18.9377 15.6913 19.4157 13.8615 19.9571 12.0684C20.5018 11.9807 20.7745 11.9397 21.3206 11.8635C22.3616 13.4182 23.3527 15.0271 24.2719 16.6567C23.7497 16.7096 23.4887 16.7389 22.9675 16.8033C22.7707 16.4711 22.6712 16.3054 22.4698 15.9748Z" fill="white"/>
<path fill-rule="evenodd" clip-rule="evenodd" d="M25.9792 12.443C26.0607 13.6424 26.1015 14.2423 26.1829 15.4419C26.5409 15.4176 26.72 15.4066 27.0782 15.3877C28.0477 15.3362 28.6851 14.7695 28.6599 13.8208C28.6338 12.8359 27.936 12.332 26.9186 12.3861C26.5428 12.4061 26.3549 12.4175 25.9792 12.443ZM24.568 11.5003C25.4946 11.4183 25.9584 11.3855 26.8866 11.3365C28.6783 11.2418 29.9638 12.1243 29.9731 13.7996C29.9821 15.4392 28.807 16.3477 27.1557 16.435C26.3003 16.4801 25.8727 16.5102 25.0188 16.586C24.8385 14.5517 24.7483 13.5346 24.568 11.5003Z" fill="white"/>
<path fill-rule="evenodd" clip-rule="evenodd" d="M31.049 11.25C32.9262 11.271 33.8652 11.3155 35.7376 11.4719C35.7042 11.8732 35.6873 12.0738 35.6539 12.4751C34.338 12.3653 33.6787 12.3272 32.3599 12.2852C32.3483 12.6533 32.3422 12.8371 32.3306 13.2052C33.1062 13.2299 33.4941 13.2481 34.2689 13.2967C34.243 13.7073 34.2302 13.9125 34.2045 14.323C33.4424 14.2752 33.0609 14.2573 32.2977 14.2328C32.2839 14.6699 32.277 14.8883 32.263 15.3253C33.6347 15.3691 34.3205 15.4101 35.6888 15.5309C35.6517 15.9521 35.6331 16.1627 35.5959 16.5838C33.7576 16.4216 32.8353 16.3759 30.9916 16.3553C31.0146 14.3131 31.026 13.292 31.049 11.25Z" fill="white"/>
<path fill-rule="evenodd" clip-rule="evenodd" d="M39.8386 14.9567C39.7684 15.4087 39.7334 15.6345 39.6633 16.0866C40.3088 16.1866 40.631 16.241 41.2745 16.3584C41.7933 16.4533 42.0858 16.3145 42.1591 15.9404C42.2323 15.5665 42.0085 15.3302 41.4799 15.2338C40.8244 15.1141 40.4962 15.0587 39.8386 14.9567ZM40.1439 12.9883C40.0821 13.3863 40.0512 13.5853 39.9896 13.9833C40.6454 14.0849 40.9727 14.1401 41.6264 14.2591C42.0728 14.3405 42.352 14.2346 42.4175 13.8957C42.4846 13.5497 42.2679 13.3527 41.8068 13.2685C41.1427 13.1477 40.81 13.0917 40.1439 12.9883ZM38.9854 11.8254C40.2725 11.9982 40.9146 12.1008 42.194 12.3381C43.4109 12.5639 43.9314 13.2441 43.7539 14.0663C43.6432 14.5795 43.1993 14.8514 42.7901 14.9079C43.2232 15.1571 43.5553 15.6347 43.4098 16.3021C43.2215 17.1665 42.492 17.5872 41.3131 17.3674C40.1141 17.1439 39.5123 17.0475 38.3058 16.8855C38.5777 14.8615 38.7136 13.8494 38.9854 11.8254Z" fill="white"/>
<path fill-rule="evenodd" clip-rule="evenodd" d="M46.7413 18.6426C46.2378 18.4994 45.9855 18.4306 45.4799 18.2984C45.6971 17.4663 45.8058 17.0502 46.023 16.2181C45.3949 14.8323 45.057 14.1423 44.3335 12.7722C45.0039 12.9201 45.3386 12.9984 46.0059 13.1642C46.4235 14.0325 46.6231 14.4682 47.004 15.3417C47.7794 14.7843 48.175 14.5115 48.9813 13.978C49.5659 14.1529 49.8572 14.2439 50.4384 14.4326C49.1562 15.2622 48.5338 15.6926 47.3278 16.5817C47.0932 17.4061 46.9758 17.8182 46.7413 18.6426Z" fill="white"/>
<path fill-rule="evenodd" clip-rule="evenodd" d="M7.76892 40.6274C7.4166 41.7769 7.24034 42.3517 6.88801 43.5012C7.24753 43.6114 7.42767 43.6654 7.78816 43.7711C8.7641 44.0577 9.56785 43.6976 9.81563 42.7814C10.0727 41.8305 9.57368 41.1628 8.63487 40.8872C8.28798 40.7854 8.11483 40.7333 7.76892 40.6274ZM6.88063 39.2461C7.70634 39.5143 8.12066 39.6423 8.95182 39.8862C10.5562 40.3565 11.4976 41.4893 11.0877 43.1139C10.6868 44.7037 9.22855 45.2877 7.51512 44.7851C6.62741 44.5249 6.18492 44.3881 5.30304 44.1017C5.93404 42.1595 6.24963 41.1882 6.88063 39.2461Z" fill="white"/>
<path fill-rule="evenodd" clip-rule="evenodd" d="M12.696 40.8799C14.3927 41.2837 15.2458 41.4605 16.9581 41.7645C16.8877 42.1609 16.8525 42.3591 16.7822 42.7556C15.5437 42.5358 14.9259 42.413 13.695 42.1417C13.6157 42.5012 13.5761 42.681 13.4968 43.0405C14.2403 43.2043 14.6127 43.2816 15.3589 43.427C15.2804 43.8308 15.2411 44.0327 15.1624 44.4364C14.4063 44.289 14.0287 44.2109 13.2755 44.0448C13.1814 44.4717 13.1342 44.6851 13.0401 45.112C14.438 45.4203 15.1397 45.5584 16.547 45.8027C16.4748 46.2192 16.4386 46.4275 16.3663 46.8441C14.4166 46.5058 13.4451 46.3062 11.514 45.8466C11.9868 43.86 12.2232 42.8665 12.696 40.8799Z" fill="white"/>
<path fill-rule="evenodd" clip-rule="evenodd" d="M18.917 43.4667C18.876 43.7442 19.0983 43.9399 19.5575 44.052C19.8414 44.1214 20.0575 44.1655 20.3797 44.2333C21.5652 44.4836 22.3287 44.9903 22.2195 46.0781C22.119 47.0795 21.215 47.6441 19.6113 47.4334C17.7215 47.1849 17.1849 46.1877 17.1229 45.4411C17.6643 45.5315 17.9354 45.5744 18.478 45.6553C18.559 45.9437 18.8906 46.3451 19.7398 46.4567C20.4668 46.5521 20.831 46.3605 20.8712 46.0177C20.9159 45.6393 20.6339 45.4782 20.1596 45.3653C19.8405 45.2893 19.623 45.2446 19.3183 45.1733C18.1599 44.896 17.4719 44.2672 17.6288 43.3165C17.7879 42.3514 18.7606 41.9781 20.0262 42.1493C21.7115 42.3771 22.2239 43.2162 22.3135 43.8758C21.8077 43.8243 21.5551 43.7963 21.05 43.7362C20.9548 43.5295 20.6279 43.2174 19.8953 43.1185C19.3092 43.0392 18.9621 43.1608 18.917 43.4667Z" fill="white"/>
<path fill-rule="evenodd" clip-rule="evenodd" d="M23.5839 42.6379C24.0783 42.6809 24.3257 42.7001 24.8206 42.7349C24.6778 44.7721 24.6063 45.7906 24.4636 47.8278C23.9351 47.7906 23.671 47.7701 23.1428 47.7242C23.3192 45.6897 23.4074 44.6724 23.5839 42.6379Z" fill="white"/>
<path fill-rule="evenodd" clip-rule="evenodd" d="M28.6403 48.1046C26.7459 48.071 25.6067 46.9274 25.6975 45.3193C25.7838 43.7901 26.9509 42.7622 28.5309 42.7947C30.1323 42.8275 30.7806 43.7205 30.9431 44.2942C30.4116 44.3002 30.1458 44.301 29.6141 44.2978C29.4811 44.1459 29.144 43.8719 28.5089 43.8589C27.6229 43.8406 27.0277 44.4976 26.9925 45.3813C26.9546 46.337 27.5586 47.0358 28.6896 47.0556C29.2744 47.0657 29.6677 46.9515 29.8445 46.8442C29.8453 46.5078 29.8459 46.3395 29.8469 46.0029C29.1667 46.001 28.8264 45.9963 28.1465 45.9796C28.1564 45.5799 28.1612 45.3801 28.1711 44.9803C29.3309 45.0089 29.9112 45.0122 31.0712 44.9973C31.0836 45.9549 31.0898 46.4338 31.1023 47.3916C30.7966 47.6472 29.9578 48.1281 28.6403 48.1046Z" fill="white"/>
<path fill-rule="evenodd" clip-rule="evenodd" d="M37.7063 47.6735C37.2778 47.7145 37.0635 47.7335 36.6346 47.7687C35.3162 46.46 34.6827 45.7917 33.4683 44.432L33.6244 47.9447C33.1076 47.9679 32.8492 47.9772 32.3323 47.9918C32.2745 45.9505 32.2458 44.9299 32.1879 42.8886C32.7507 42.8727 33.032 42.862 33.5944 42.8356C34.6324 44.0393 35.1716 44.6325 36.2896 45.7983C36.1899 44.5511 36.1402 43.9277 36.0405 42.6803C36.5119 42.6426 36.7475 42.622 37.2183 42.5769C37.4135 44.6156 37.5112 45.6349 37.7063 47.6735Z" fill="white"/>
<path fill-rule="evenodd" clip-rule="evenodd" d="M40.3868 44.7818C40.1839 43.2708 41.1291 42.0275 42.6638 41.7659C44.3206 41.4834 45.1905 42.4576 45.4246 43.0042C44.9169 43.108 44.6627 43.1577 44.1539 43.2528C44.0006 43.0839 43.5651 42.7283 42.8486 42.8505C41.9859 42.9974 41.5627 43.7641 41.6886 44.5958C41.8147 45.4275 42.4685 46.0372 43.3659 45.8842C44.1646 45.748 44.4122 45.26 44.4969 45.0466C45.015 44.9497 45.2737 44.8992 45.7904 44.7936C45.795 45.3137 45.3939 46.6546 43.5509 46.9688C41.9082 47.249 40.5895 46.2927 40.3868 44.7818Z" fill="white"/>
<path fill-rule="evenodd" clip-rule="evenodd" d="M50.6117 42.7013C50.3851 41.8762 49.6422 41.3678 48.7399 41.5964C47.845 41.8231 47.4194 42.6201 47.6145 43.4606C47.8114 44.3083 48.5679 44.8297 49.4992 44.5937C50.4382 44.3559 50.8402 43.5335 50.6117 42.7013ZM46.334 43.7464C46.0039 42.2067 46.9563 40.9209 48.4715 40.537C49.9797 40.1548 51.4356 40.8307 51.8783 42.3418C52.315 43.8323 51.382 45.2444 49.7677 45.6534C48.1458 46.0642 46.6597 45.2651 46.334 43.7464Z" fill="white"/>
<path fill-rule="evenodd" clip-rule="evenodd" d="M53.014 43.1958C53.5675 43.0271 53.8436 42.9402 54.3946 42.7612C54.5687 43.2974 54.6559 43.5654 54.8301 44.1017C54.2692 44.2838 53.9882 44.3724 53.4249 44.5438C53.2606 44.0048 53.1784 43.735 53.014 43.1958Z" fill="white"/>
</g>
</g>
</svg>
