<svg width="24" height="24" viewBox="0 0 24 24" fill="none" xmlns="http://www.w3.org/2000/svg">
<path fill-rule="evenodd" clip-rule="evenodd" d="M2 14V18V19C2 20.6569 3.34315 22 5 22H6C7.65685 22 9 20.6569 9 19V16C9 14.3431 7.65685 13 6 13H4V12C4 7.58172 7.58172 4 12 4C16.4183 4 20 7.58172 20 12V13H18C16.3431 13 15 14.3431 15 16V19C15 20.6569 16.3431 22 18 22H19C20.6569 22 22 20.6569 22 19V18V14V12C22 6.47715 17.5228 2 12 2C6.47715 2 2 6.47715 2 12V14ZM18 15H20V19C20 19.5523 19.5523 20 19 20H18C17.4477 20 17 19.5523 17 19V16C17 15.4477 17.4477 15 18 15ZM4 19V15H6C6.55228 15 7 15.4477 7 16V19C7 19.5523 6.55228 20 6 20H5C4.44772 20 4 19.5523 4 19Z" fill="black"/>
<mask id="mask0" mask-type="alpha" maskUnits="userSpaceOnUse" x="2" y="2" width="20" height="20">
<path fill-rule="evenodd" clip-rule="evenodd" d="M2 14V18V19C2 20.6569 3.34315 22 5 22H6C7.65685 22 9 20.6569 9 19V16C9 14.3431 7.65685 13 6 13H4V12C4 7.58172 7.58172 4 12 4C16.4183 4 20 7.58172 20 12V13H18C16.3431 13 15 14.3431 15 16V19C15 20.6569 16.3431 22 18 22H19C20.6569 22 22 20.6569 22 19V18V14V12C22 6.47715 17.5228 2 12 2C6.47715 2 2 6.47715 2 12V14ZM18 15H20V19C20 19.5523 19.5523 20 19 20H18C17.4477 20 17 19.5523 17 19V16C17 15.4477 17.4477 15 18 15ZM4 19V15H6C6.55228 15 7 15.4477 7 16V19C7 19.5523 6.55228 20 6 20H5C4.44772 20 4 19.5523 4 19Z" fill="white"/>
</mask>
<g mask="url(#mask0)">
<rect width="24" height="24" fill="#02A89B"/>
</g>
</svg>
